HIERARCHY
ROOT hip
{
  OFFSET -0.380877 103.83 -0.41898
  CHANNELS 6 Xposition Yposition Zposition Zrotation Xrotation Yrotation
  JOINT abdomen
  {
    OFFSET 0 -1.186 -1.50178
    CHANNELS 6 Xposition Yposition Zposition Zrotation Xrotation Yrotation
    JOINT abdomen2
    {
      OFFSET 0 9.964 0.21338
      CHANNELS 6 Xposition Yposition Zposition Zrotation Xrotation Yrotation
      JOINT chest
      {
        OFFSET 0 13.134 -3.25729
        CHANNELS 6 Xposition Yposition Zposition Zrotation Xrotation Yrotation
        JOINT neck
        {
          OFFSET 0 21.686 -1.69049
          CHANNELS 6 Xposition Yposition Zposition Zrotation Xrotation Yrotation
          JOINT head
          {
            OFFSET 0 11.838 -0.12368
            CHANNELS 6 Xposition Yposition Zposition Zrotation Xrotation Yrotation
            End Site
            {
              OFFSET 0 6.717 2.38717
            }
          }
        }
        JOINT lCollar
        {
          OFFSET 1.70688 20.075 5.0056
          CHANNELS 6 Xposition Yposition Zposition Zrotation Xrotation Yrotation
          JOINT lShldr
          {
            OFFSET 13.6458 -0.047012 -4.84902
            CHANNELS 6 Xposition Yposition Zposition Zrotation Xrotation Yrotation
            JOINT lForeArm
            {
              OFFSET 28.3255 -0.975903 2.28883
              CHANNELS 6 Xposition Yposition Zposition Zrotation Xrotation Yrotation
              JOINT lHand
              {
                OFFSET 22.1583 -0.530035 10.8316
                CHANNELS 6 Xposition Yposition Zposition Zrotation Xrotation Yrotation
                JOINT lThumb1
                {
                  OFFSET 0.785995 0.111999 2.58168
                  CHANNELS 6 Xposition Yposition Zposition Zrotation Xrotation Yrotation
                  JOINT lThumb2
                  {
                    OFFSET 0.3601 -0.878005 4.2331
                    CHANNELS 6 Xposition Yposition Zposition Zrotation Xrotation Yrotation
                    End Site
                    {
                      OFFSET 1.81271 -1.21601 2.2227
                    }
                  }
                }
                JOINT lCarpal1
                {
                  OFFSET 0.9571 1.114 1.76948
                  CHANNELS 6 Xposition Yposition Zposition Zrotation Xrotation Yrotation
                  JOINT lIndex1
                  {
                    OFFSET 4.1246 0.487 4.1451
                    CHANNELS 6 Xposition Yposition Zposition Zrotation Xrotation Yrotation
                    JOINT lIndex2
                    {
                      OFFSET 3.40521 -1.45401 2.7682
                      CHANNELS 6 Xposition Yposition Zposition Zrotation Xrotation Yrotation
                      End Site
                      {
                        OFFSET 1.4531 -1.795 1.2713
                      }
                    }
                  }
                  JOINT lMid1
                  {
                    OFFSET 5.6954 0.209991 2.1184
                    CHANNELS 6 Xposition Yposition Zposition Zrotation Xrotation Yrotation
                    JOINT lMid2
                    {
                      OFFSET 3.9766 -1.53999 2.3863
                      CHANNELS 6 Xposition Yposition Zposition Zrotation Xrotation Yrotation
                      End Site
                      {
                        OFFSET 1.4042 -1.926 1.125
                      }
                    }
                  }
                }
                JOINT lCarpal2
                {
                  OFFSET 2.09559 0.65999 -0.38939
                  CHANNELS 6 Xposition Yposition Zposition Zrotation Xrotation Yrotation
                  JOINT lRing1
                  {
                    OFFSET 5.0395 -0.089997 2.49707
                    CHANNELS 6 Xposition Yposition Zposition Zrotation Xrotation Yrotation
                    JOINT lRing2
                    {
                      OFFSET 3.7921 -1.552 1.4806
                      CHANNELS 6 Xposition Yposition Zposition Zrotation Xrotation Yrotation
                      End Site
                      {
                        OFFSET 1.4655 -1.808 0.9609
                      }
                    }
                  }
                  JOINT lPinky1
                  {
                    OFFSET 4.9141 -1.269 0.35915
                    CHANNELS 6 Xposition Yposition Zposition Zrotation Xrotation Yrotation
                    JOINT lPinky2
                    {
                      OFFSET 3.1477 -1.685 0.84623
                      CHANNELS 6 Xposition Yposition Zposition Zrotation Xrotation Yrotation
                      End Site
                      {
                        OFFSET 0.805505 -1.58499 0.79549
                      }
                    }
                  }
                }
              }
            }
          }
        }
        JOINT rCollar
        {
          OFFSET -1.70688 20.075 5.0056
          CHANNELS 6 Xposition Yposition Zposition Zrotation Xrotation Yrotation
          JOINT rShldr
          {
            OFFSET -13.6458 -0.047012 -4.84902
            CHANNELS 6 Xposition Yposition Zposition Zrotation Xrotation Yrotation
            JOINT rForeArm
            {
              OFFSET -28.3255 -0.975903 2.28883
              CHANNELS 6 Xposition Yposition Zposition Zrotation Xrotation Yrotation
              JOINT rHand
              {
                OFFSET -22.1583 -0.530036 10.8316
                CHANNELS 6 Xposition Yposition Zposition Zrotation Xrotation Yrotation
                JOINT rThumb1
                {
                  OFFSET -0.785995 0.111999 2.58168
                  CHANNELS 6 Xposition Yposition Zposition Zrotation Xrotation Yrotation
                  JOINT rThumb2
                  {
                    OFFSET -0.3601 -0.878005 4.2331
                    CHANNELS 6 Xposition Yposition Zposition Zrotation Xrotation Yrotation
                    End Site
                    {
                      OFFSET -1.81271 -1.21601 2.2227
                    }
                  }
                }
                JOINT rCarpal1
                {
                  OFFSET -0.9571 1.114 1.76948
                  CHANNELS 6 Xposition Yposition Zposition Zrotation Xrotation Yrotation
                  JOINT rIndex1
                  {
                    OFFSET -4.1246 0.487 4.1451
                    CHANNELS 6 Xposition Yposition Zposition Zrotation Xrotation Yrotation
                    JOINT rIndex2
                    {
                      OFFSET -3.40521 -1.45401 2.7682
                      CHANNELS 6 Xposition Yposition Zposition Zrotation Xrotation Yrotation
                      End Site
                      {
                        OFFSET -1.4531 -1.795 1.2713
                      }
                    }
                  }
                  JOINT rMid1
                  {
                    OFFSET -5.6954 0.209991 2.1184
                    CHANNELS 6 Xposition Yposition Zposition Zrotation Xrotation Yrotation
                    JOINT rMid2
                    {
                      OFFSET -3.9766 -1.53999 2.3863
                      CHANNELS 6 Xposition Yposition Zposition Zrotation Xrotation Yrotation
                      End Site
                      {
                        OFFSET -1.4042 -1.926 1.125
                      }
                    }
                  }
                }
                JOINT rCarpal2
                {
                  OFFSET -2.09559 0.65999 -0.38939
                  CHANNELS 6 Xposition Yposition Zposition Zrotation Xrotation Yrotation
                  JOINT rRing1
                  {
                    OFFSET -5.0395 -0.089997 2.49707
                    CHANNELS 6 Xposition Yposition Zposition Zrotation Xrotation Yrotation
                    JOINT rRing2
                    {
                      OFFSET -3.7921 -1.552 1.4806
                      CHANNELS 6 Xposition Yposition Zposition Zrotation Xrotation Yrotation
                      End Site
                      {
                        OFFSET -1.4655 -1.808 0.9609
                      }
                    }
                  }
                  JOINT rPinky1
                  {
                    OFFSET -4.9141 -1.269 0.35915
                    CHANNELS 6 Xposition Yposition Zposition Zrotation Xrotation Yrotation
                    JOINT rPinky2
                    {
                      OFFSET -3.1477 -1.685 0.84623
                      CHANNELS 6 Xposition Yposition Zposition Zrotation Xrotation Yrotation
                      End Site
                      {
                        OFFSET -0.805505 -1.58499 0.79549
                      }
                    }
                  }
                }
              }
            }
          }
        }
      }
    }
  }
  JOINT lThigh
  {
    OFFSET 8.367 -8.2066 0.59823
    CHANNELS 6 Xposition Yposition Zposition Zrotation Xrotation Yrotation
    JOINT lShin
    {
      OFFSET 2.19232 -43.463 -0.493181
      CHANNELS 6 Xposition Yposition Zposition Zrotation Xrotation Yrotation
      JOINT lFoot
      {
        OFFSET 0.733257 -45.8593 -2.64513
        CHANNELS 6 Xposition Yposition Zposition Zrotation Xrotation Yrotation
        End Site
        {
          OFFSET 2.6618 -4.26993 12.3931
        }
      }
    }
  }
  JOINT rThigh
  {
    OFFSET -8.367 -8.2066 0.59823
    CHANNELS 6 Xposition Yposition Zposition Zrotation Xrotation Yrotation
    JOINT rShin
    {
      OFFSET -2.19233 -43.463 -0.493108
      CHANNELS 6 Xposition Yposition Zposition Zrotation Xrotation Yrotation
      JOINT rFoot
      {
        OFFSET -0.733256 -45.8593 -2.64514
        CHANNELS 6 Xposition Yposition Zposition Zrotation Xrotation Yrotation
        End Site
        {
          OFFSET -2.6618 -4.26993 12.3931
        }
      }
    }
  }
}
MOTION
Frames:	4
Frame Time:	0.0333333
-0.380877 103.83 -0.41898 0.973503 -0.858576 7.04504 0 -1.186 -1.50178 0.271426 0.484609 -0.0195447 -2.22045e-016 9.964 0.21338 0.542838 0.969193 -0.0423876 0 13.134 -3.25729 0.542567 0.969305 -0.0436946 0 21.686 -1.69049 -2.89201 -1.38957 -0.540164 0 11.838 -0.12368 0.505645 0.162513 -1.55732 1.70688 20.075 5.0056 -2.86536 -0.47382 -0.44857 13.6458 -0.047012 -4.84902 -80.345 -0.43401 4.66545 28.3255 -0.975903 2.28883 -0.455676 -2.78387 21.1902 22.1583 -0.530035 10.8316 0.176282 -0.026414 0.566927 0.785995 0.111999 2.58168 -1.59028e-015 1.59028e-015 -0 0.3601 -0.878005 4.2331 0 1.59028e-015 -0 0.9571 1.114 1.76948 -1.59028e-015 1.59028e-015 -0 4.1246 0.487 4.1451 0 1.59028e-015 -0 3.40521 -1.45401 2.7682 1.59028e-015 1.59028e-015 -0 5.6954 0.209991 2.1184 0 1.59028e-015 -0 3.9766 -1.53999 2.3863 1.59028e-015 1.59028e-015 -0 2.09559 0.65999 -0.38939 -1.59028e-015 1.59028e-015 -0 5.0395 -0.089997 2.49707 0 1.59028e-015 -0 3.7921 -1.552 1.4806 1.59028e-015 1.59028e-015 -0 4.9141 -1.269 0.35915 0 1.59028e-015 -0 3.1477 -1.685 0.84623 1.59028e-015 1.59028e-015 -0 -1.70688 20.075 5.0056 1.63855 -1.08453 1.39758 -13.6458 -0.047012 -4.84902 74.741 1.69714 -7.9916 -28.3255 -0.975903 2.28883 1.22488 -7.10418 -19.6482 -22.1583 -0.530036 10.8316 2.21527 1.79397 -2.32807 -0.785995 0.111999 2.58168 -1.98785e-016 3.97569e-016 3.18055e-015 -0.3601 -0.878005 4.2331 2.78299e-015 -3.97569e-016 3.18055e-015 -0.9571 1.114 1.76948 -1.98785e-016 3.97569e-016 3.18055e-015 -4.1246 0.487 4.1451 2.78299e-015 -3.97569e-016 3.18055e-015 -3.40521 -1.45401 2.7682 -1.98785e-015 1.19271e-015 -3.18055e-015 -5.6954 0.209991 2.1184 2.78299e-015 -3.97569e-016 3.18055e-015 -3.9766 -1.53999 2.3863 -1.98785e-015 1.19271e-015 -3.18055e-015 -2.09559 0.65999 -0.38939 -1.98785e-016 3.97569e-016 3.18055e-015 -5.0395 -0.089997 2.49707 2.78299e-015 -3.97569e-016 3.18055e-015 -3.7921 -1.552 1.4806 -1.98785e-015 1.19271e-015 -3.18055e-015 -4.9141 -1.269 0.35915 2.78299e-015 -3.97569e-016 3.18055e-015 -3.1477 -1.685 0.84623 -1.98785e-015 1.19271e-015 -3.18055e-015 8.367 -8.2066 0.59823 0.0276378 0.240351 0.371666 2.19232 -43.463 -0.493181 -0.43425 0.514889 -1.64589 0.733257 -45.8593 -2.64513 0.00350279 -1.6473 0.0117815 -8.367 -8.2066 0.59823 2.73373 3.1306 -2.07366 -2.19233 -43.463 -0.493108 -0.521424 -0.35652 -4.83224 -0.733256 -45.8593 -2.64514 -0.830534 -1.98196 0.197618 
-0.37225 103.826 -0.394652 0.963864 -0.918018 6.89542 -2.22045e-016 -1.186 -1.50178 0.289284 0.483565 -0.0192125 -2.22045e-016 9.964 0.21338 0.578567 0.967127 -0.041842 -4.44089e-016 13.134 -3.25729 0.578291 0.967242 -0.0431486 8.88179e-016 21.686 -1.69049 -3.03311 -1.35213 -0.482052 4.44089e-016 11.838 -0.12368 0.281586 0.215283 -1.46869 1.70688 20.075 5.0056 -3.02616 -0.446252 -0.376652 13.6458 -0.047012 -4.84902 -80.2261 -0.370926 4.74085 28.3255 -0.975903 2.28883 -0.917215 -3.92236 21.1877 22.1583 -0.530035 10.8316 0.309714 -0.350109 -0.529128 0.785995 0.111999 2.58168 -7.95139e-016 1.59028e-015 -0 0.3601 -0.878005 4.2331 7.95139e-016 0 3.18055e-015 0.9571 1.114 1.76948 -7.95139e-016 1.59028e-015 -0 4.1246 0.487 4.1451 7.95139e-016 0 3.18055e-015 3.40521 -1.45401 2.7682 -0 0 6.36111e-015 5.6954 0.209991 2.1184 7.95139e-016 0 3.18055e-015 3.9766 -1.53999 2.3863 -0 0 6.36111e-015 2.09559 0.65999 -0.38939 -7.95139e-016 1.59028e-015 -0 5.0395 -0.089997 2.49707 7.95139e-016 0 3.18055e-015 3.7921 -1.552 1.4806 -0 0 6.36111e-015 4.9141 -1.269 0.35915 7.95139e-016 0 3.18055e-015 3.1477 -1.685 0.84623 -0 0 6.36111e-015 -1.70688 20.075 5.0056 1.49721 -1.09314 1.41867 -13.6458 -0.047012 -4.84902 74.7846 1.85834 -8.02293 -28.3255 -0.975903 2.28883 1.18533 -7.05377 -19.5571 -22.1583 -0.530036 10.8316 2.09278 1.68743 -2.01882 -0.785995 0.111999 2.58168 -9.93923e-016 -3.97569e-016 3.18055e-015 -0.3601 -0.878005 4.2331 -5.96354e-016 7.95139e-016 -0 -0.9571 1.114 1.76948 -9.93923e-016 -3.97569e-016 3.18055e-015 -4.1246 0.487 4.1451 -5.96354e-016 7.95139e-016 -0 -3.40521 -1.45401 2.7682 -1.78906e-015 1.59028e-015 -0 -5.6954 0.209991 2.1184 -5.96354e-016 7.95139e-016 -0 -3.9766 -1.53999 2.3863 -1.78906e-015 1.59028e-015 -0 -2.09559 0.65999 -0.38939 -9.93923e-016 -3.97569e-016 3.18055e-015 -5.0395 -0.089997 2.49707 -5.96354e-016 7.95139e-016 -0 -3.7921 -1.552 1.4806 -1.78906e-015 1.59028e-015 -0 -4.9141 -1.269 0.35915 -5.96354e-016 7.95139e-016 -0 -3.1477 -1.685 0.84623 -1.78906e-015 1.59028e-015 -0 8.367 -8.2066 0.59823 -0.035447 0.360429 0.286044 2.19232 -43.463 -0.493181 -0.281361 0.463692 -1.42773 0.733257 -45.8593 -2.64513 -0.10972 -1.65204 0.0333016 -8.367 -8.2066 0.59823 2.69189 3.0041 -2.14022 -2.19233 -43.463 -0.493108 -0.424398 0.0158129 -4.62641 -0.733256 -45.8593 -2.64514 -0.872452 -2.19706 0.203962 
-0.340368 103.828 -0.416892 0.967109 -0.86315 6.74742 2.22045e-016 -1.186 -1.50178 0.288908 0.48106 0.00777626 0 9.964 0.21338 0.577588 0.962308 0.0121553 4.44089e-016 13.134 -3.25729 0.577308 0.962498 0.0108577 0 21.686 -1.69049 -2.82703 -1.5388 -0.51175 -4.44089e-016 11.838 -0.12368 -0.0875449 0.32344 -1.45457 1.70688 20.075 5.0056 -3.16199 -0.47228 -0.301707 13.6458 -0.047012 -4.84902 -80.05 -0.356246 4.599 28.3255 -0.975903 2.28883 -0.814456 -3.53815 21.1887 22.1583 -0.530035 10.8316 0.162239 -0.193865 -0.337757 0.785995 0.111999 2.58168 -1.59028e-015 -1.59028e-015 -3.18055e-015 0.3601 -0.878005 4.2331 -7.95139e-016 -1.59028e-015 -3.18055e-015 0.9571 1.114 1.76948 -1.59028e-015 -1.59028e-015 -3.18055e-015 4.1246 0.487 4.1451 -7.95139e-016 -1.59028e-015 -3.18055e-015 3.40521 -1.45401 2.7682 7.95139e-016 0 -0 5.6954 0.209991 2.1184 -7.95139e-016 -1.59028e-015 -3.18055e-015 3.9766 -1.53999 2.3863 7.95139e-016 0 -0 2.09559 0.65999 -0.38939 -1.59028e-015 -1.59028e-015 -3.18055e-015 5.0395 -0.089997 2.49707 -7.95139e-016 -1.59028e-015 -3.18055e-015 3.7921 -1.552 1.4806 7.95139e-016 0 -0 4.9141 -1.269 0.35915 -7.95139e-016 -1.59028e-015 -3.18055e-015 3.1477 -1.685 0.84623 7.95139e-016 0 -0 -1.70688 20.075 5.0056 1.49068 -1.10929 1.47058 -13.6458 -0.047012 -4.84902 74.7363 2.02521 -8.06196 -28.3255 -0.975903 2.28883 1.12704 -7.13564 -19.4038 -22.1583 -0.530036 10.8316 1.98005 1.62406 -2.29444 -0.785995 0.111999 2.58168 7.95139e-016 3.97569e-016 -3.18055e-015 -0.3601 -0.878005 4.2331 -3.97569e-016 3.97569e-016 -3.18055e-015 -0.9571 1.114 1.76948 7.95139e-016 3.97569e-016 -3.18055e-015 -4.1246 0.487 4.1451 -3.97569e-016 3.97569e-016 -3.18055e-015 -3.40521 -1.45401 2.7682 4.57205e-015 3.97569e-016 3.18055e-015 -5.6954 0.209991 2.1184 -3.97569e-016 3.97569e-016 -3.18055e-015 -3.9766 -1.53999 2.3863 4.57205e-015 3.97569e-016 3.18055e-015 -2.09559 0.65999 -0.38939 7.95139e-016 3.97569e-016 -3.18055e-015 -5.0395 -0.089997 2.49707 -3.97569e-016 3.97569e-016 -3.18055e-015 -3.7921 -1.552 1.4806 4.57205e-015 3.97569e-016 3.18055e-015 -4.9141 -1.269 0.35915 -3.97569e-016 3.97569e-016 -3.18055e-015 -3.1477 -1.685 0.84623 4.57205e-015 3.97569e-016 3.18055e-015 8.367 -8.2066 0.59823 -0.0101094 0.312647 0.35069 2.19232 -43.463 -0.493181 -0.381512 0.457872 -1.43261 0.733257 -45.8593 -2.64513 0.00630238 -1.6543 0.0132029 -8.367 -8.2066 0.59823 2.65298 3.45603 -2.12769 -2.19233 -43.463 -0.493108 -0.413307 -0.489888 -4.49442 -0.733256 -45.8593 -2.64514 -0.840401 -2.14516 0.201064 
-0.329686 103.824 -0.373482 0.937318 -0.955237 6.77448 -2.22045e-016 -1.186 -1.50178 0.307294 0.456357 0.00250515 0 9.964 0.21338 0.614404 0.912863 0.00163084 -4.44089e-016 13.134 -3.25729 0.61414 0.913049 0.000407277 0 21.686 -1.69049 -2.93275 -1.22274 -0.589588 0 11.838 -0.12368 -0.225936 0.0261141 -1.47092 1.70688 20.075 5.0056 -3.11222 -0.270438 -0.357501 13.6458 -0.047012 -4.84902 -80.2039 -0.487582 4.72115 28.3255 -0.975903 2.28883 -0.800164 -3.7068 21.1884 22.1583 -0.530035 10.8316 -0.00316436 -0.0705529 -0.383091 0.785995 0.111999 2.58168 1.59028e-015 1.59028e-015 -3.18055e-015 0.3601 -0.878005 4.2331 2.38542e-015 3.18055e-015 -6.36111e-015 0.9571 1.114 1.76948 1.59028e-015 1.59028e-015 -3.18055e-015 4.1246 0.487 4.1451 2.38542e-015 3.18055e-015 -6.36111e-015 3.40521 -1.45401 2.7682 1.76556e-031 1.59028e-015 -6.36111e-015 5.6954 0.209991 2.1184 2.38542e-015 3.18055e-015 -6.36111e-015 3.9766 -1.53999 2.3863 1.76556e-031 1.59028e-015 -6.36111e-015 2.09559 0.65999 -0.38939 1.59028e-015 1.59028e-015 -3.18055e-015 5.0395 -0.089997 2.49707 2.38542e-015 3.18055e-015 -6.36111e-015 3.7921 -1.552 1.4806 1.76556e-031 1.59028e-015 -6.36111e-015 4.9141 -1.269 0.35915 2.38542e-015 3.18055e-015 -6.36111e-015 3.1477 -1.685 0.84623 1.76556e-031 1.59028e-015 -6.36111e-015 -1.70688 20.075 5.0056 1.4598 -0.898443 1.43478 -13.6458 -0.047012 -4.84902 74.6753 1.6194 -8.0352 -28.3255 -0.975903 2.28883 0.983053 -6.49025 -19.4858 -22.1583 -0.530036 10.8316 2.09486 1.67454 -1.78811 -0.785995 0.111999 2.58168 -7.95139e-016 -7.95139e-016 -0 -0.3601 -0.878005 4.2331 7.95139e-016 -3.97569e-016 -0 -0.9571 1.114 1.76948 -7.95139e-016 -7.95139e-016 -0 -4.1246 0.487 4.1451 7.95139e-016 -3.97569e-016 -0 -3.40521 -1.45401 2.7682 2.18663e-015 -7.95139e-016 -0 -5.6954 0.209991 2.1184 7.95139e-016 -3.97569e-016 -0 -3.9766 -1.53999 2.3863 2.18663e-015 -7.95139e-016 -0 -2.09559 0.65999 -0.38939 -7.95139e-016 -7.95139e-016 -0 -5.0395 -0.089997 2.49707 7.95139e-016 -3.97569e-016 -0 -3.7921 -1.552 1.4806 2.18663e-015 -7.95139e-016 -0 -4.9141 -1.269 0.35915 7.95139e-016 -3.97569e-016 -0 -3.1477 -1.685 0.84623 2.18663e-015 -7.95139e-016 -0 8.367 -8.2066 0.59823 -0.0173364 0.427471 0.349079 2.19232 -43.463 -0.493181 -0.303569 0.457477 -1.33998 0.733257 -45.8593 -2.64513 -0.262095 -1.57995 0.0672475 -8.367 -8.2066 0.59823 2.68329 3.48199 -2.15903 -2.19233 -43.463 -0.493108 -0.385612 -0.380513 -4.47653 -0.733256 -45.8593 -2.64514 -0.85391 -2.24373 0.203167 
